<svg xmlns="http://www.w3.org/2000/svg" width="1624" height="282" viewBox="0 0 1624 282" version="1.1"><path d="M 268.824 37.301 L 263.213 41.500 247.357 56.193 L 231.500 70.885 227.500 74.065 L 223.500 77.244 208.500 87.288 L 193.500 97.331 185 104.467 L 176.500 111.603 167.587 118.511 L 158.675 125.420 151.087 132.570 L 143.500 139.721 136.065 146.109 L 128.630 152.497 124.315 158.358 L 120 164.220 120 162.578 L 120 160.936 121.460 157.442 L 122.919 153.949 117.806 158.225 L 112.692 162.500 107.342 168.950 L 101.992 175.399 102.533 177.103 L 103.074 178.808 98.164 184.654 L 93.255 190.500 75.878 207.641 L 58.500 224.782 50.081 232.148 L 41.662 239.513 41.201 240.898 L 40.739 242.282 43.344 241.629 L 45.948 240.975 57.724 238.927 L 69.500 236.879 80.573 236.300 L 91.645 235.720 99.481 237.464 L 107.317 239.207 111.800 241.129 L 116.283 243.050 116.711 242.622 L 117.139 242.194 110.320 238.103 L 103.500 234.011 110.561 234.005 L 117.622 234 131.561 231.976 L 145.500 229.952 150.645 229.053 L 155.790 228.154 166.645 225.490 L 177.500 222.826 185 219.932 L 192.500 217.037 200 212.629 L 207.500 208.222 212.265 204.013 L 217.029 199.804 227.348 188.152 L 237.668 176.500 240.480 172.230 L 243.293 167.959 242.739 167.406 L 242.186 166.853 239.101 168.448 L 236.016 170.043 221.758 180.152 L 207.500 190.260 200.335 193.566 L 193.170 196.872 187.835 198.457 L 182.500 200.041 167.575 203.053 L 152.650 206.064 142.575 208.548 L 132.500 211.031 124.500 213.600 L 116.500 216.168 108.500 219.664 L 100.500 223.161 97.214 224.711 L 93.928 226.262 93.401 225.734 L 92.873 225.206 101.686 217.524 L 110.500 209.842 123.500 201.274 L 136.500 192.705 144.609 187.411 L 152.718 182.116 158.359 179.350 L 164 176.583 164 175.869 L 164 175.155 160.326 173.943 L 156.653 172.730 149.068 173.315 L 141.483 173.900 137.939 175.381 L 134.395 176.862 132.995 175.997 L 131.595 175.132 130.548 175.653 L 129.500 176.174 132 174.017 L 134.500 171.861 141.531 168.424 L 148.563 164.986 163.531 162.421 L 178.500 159.857 184.790 158.307 L 191.079 156.756 193.290 154.899 L 195.500 153.041 194 152.037 L 192.500 151.033 191.500 150.574 L 190.500 150.116 192.500 148.808 L 194.500 147.500 198.273 145.959 L 202.046 144.418 207.954 140.116 L 213.862 135.813 220.176 129.238 L 226.490 122.663 225.361 122.287 L 224.232 121.911 217.699 125.501 L 211.167 129.092 208.127 129.964 L 205.087 130.835 203.043 130.301 L 201 129.767 201 127.106 L 201 124.445 202.431 122.403 L 203.861 120.360 211.139 117.005 L 218.417 113.651 234.459 97.747 L 250.500 81.843 248.316 82.921 L 246.131 84 245.540 84 L 244.949 84 250.385 77.593 L 255.820 71.185 259.410 65.573 L 263 59.961 263 58.945 L 263 57.930 261 59 L 259 60.070 259 59.416 L 259 58.762 262.664 52.631 L 266.327 46.500 270.712 40.132 L 275.098 33.764 274.767 33.433 L 274.435 33.102 268.824 37.301 M 255.459 38.378 L 250.418 40.714 247.774 43.857 L 245.129 47 244.065 47 L 243 47 243 45 L 243 43 241.947 43 L 240.893 43 234.057 48.455 L 227.220 53.909 224.064 57.705 L 220.908 61.500 221.617 59.500 L 222.325 57.500 224.163 54.846 L 226 52.191 226 50.596 L 226 49 223.660 49 L 221.319 49 215.233 52.041 L 209.147 55.083 200.578 63.041 L 192.008 71 192.456 71 L 192.905 71 190.588 73.500 L 188.271 76 187.190 76 L 186.110 76 185.805 71.250 L 185.500 66.500 186.285 61.118 L 187.069 55.736 186.562 55.228 L 186.054 54.721 182.340 57.554 L 178.626 60.387 175.836 63.444 L 173.047 66.500 169.143 74.500 L 165.239 82.500 164.081 86.500 L 162.922 90.500 156.559 104 L 150.195 117.500 147.850 122.913 L 145.506 128.325 141.003 132.938 L 136.500 137.551 131.500 141.524 L 126.500 145.497 119.500 151.414 L 112.500 157.330 104.577 164.683 L 96.653 172.036 91.114 175.712 L 85.576 179.389 81.654 182.931 L 77.733 186.474 71.961 194.987 L 66.190 203.500 60.845 209.677 L 55.500 215.854 50.484 220.309 L 45.469 224.764 36.984 231.182 L 28.500 237.599 22 242.493 L 15.500 247.386 12.281 250.136 L 9.061 252.885 13.281 256.397 L 17.500 259.910 17.860 258.875 L 18.220 257.839 15.360 254.765 L 12.500 251.691 14 252.494 L 15.500 253.298 17.746 255.319 L 19.992 257.341 20.667 256.667 L 21.341 255.992 18.921 253.297 L 16.500 250.601 19.215 252.301 L 21.930 254 23.215 253.964 L 24.500 253.928 21.500 251.469 L 18.500 249.010 19.785 249.005 L 21.070 249 23.566 250.635 L 26.062 252.271 26.766 251.567 L 27.470 250.863 24.985 248.871 L 22.500 246.880 25.693 248.436 L 28.886 249.993 29.442 249.094 L 29.998 248.195 26.749 246.114 L 23.500 244.034 24.500 244.021 L 25.500 244.007 28.863 246.058 L 32.226 248.108 32.861 247.472 L 33.497 246.836 31.835 245.668 L 30.173 244.500 28.337 243.293 L 26.500 242.087 29.752 243.142 L 33.004 244.197 33.561 245.098 L 34.118 246 35.059 246 L 36 246 36 245.024 L 36 244.048 32.250 241.992 L 28.500 239.936 31 240.572 L 33.500 241.208 35.658 242.567 L 37.817 243.926 38.930 242.584 L 40.044 241.243 36.070 239.371 L 32.097 237.500 40.798 231.011 L 49.500 224.521 58.150 217.265 L 66.800 210.008 78.568 198.254 L 90.335 186.500 95.553 179.500 L 100.770 172.500 109.135 164.461 L 117.500 156.421 122 152.962 L 126.500 149.504 136 141.616 L 145.500 133.729 146 133.052 L 146.500 132.374 155.500 124.914 L 164.500 117.453 168.500 114.508 L 172.500 111.563 176 108.363 L 179.500 105.163 182.361 102.921 L 185.222 100.680 197.861 92.386 L 210.500 84.092 218 78.855 L 225.500 73.618 231 69.079 L 236.500 64.540 247.500 54.390 L 258.500 44.240 262.804 40.370 L 267.108 36.500 263.804 36.271 L 260.500 36.042 255.459 38.378 M 143.047 82.599 L 139.887 86.198 137.499 91.599 L 135.110 97 134.138 97 L 133.167 97 132.712 95.750 L 132.257 94.500 130.379 95.591 L 128.500 96.682 126.124 100.934 L 123.747 105.186 122.960 108.343 L 122.173 111.500 120.581 117.320 L 118.989 123.140 115.427 131.820 L 111.865 140.500 108.297 147.500 L 104.728 154.500 100.231 161.487 L 95.733 168.474 94.568 169.487 L 93.402 170.500 91.951 172.473 L 90.500 174.447 93.500 172.151 L 96.500 169.856 107.500 159.598 L 118.500 149.340 127.022 142.773 L 135.544 136.205 140.120 130.353 L 144.697 124.500 145.788 122.429 L 146.879 120.358 149.052 114.079 L 151.225 107.801 150.626 98.150 L 150.027 88.500 149.363 84 L 148.699 79.500 147.315 82.500 L 145.931 85.500 146.292 82.250 L 146.654 79 146.430 79 L 146.207 79 143.047 82.599 M 103.500 107.525 L 97.500 110.690 95.266 114.595 L 93.033 118.500 93.003 126 L 92.973 133.500 92.373 135.739 L 91.773 137.978 90.980 137.487 L 90.187 136.997 90.636 138.749 L 91.085 140.500 88.292 144.663 L 85.500 148.827 79.564 156.093 L 73.628 163.359 68.988 171.430 L 64.348 179.500 60.603 188 L 56.858 196.500 53.027 206 L 49.195 215.500 48.485 218 L 47.775 220.500 51.987 216.500 L 56.198 212.500 61.923 205.500 L 67.648 198.500 71.709 192.500 L 75.770 186.500 83.440 177 L 91.110 167.500 95.999 157.500 L 100.888 147.500 103.412 139.500 L 105.936 131.500 108.523 118.605 L 111.109 105.709 110.305 105.035 L 109.500 104.361 103.500 107.525 M 80.799 116.286 L 78.097 118.500 75.022 124 L 71.948 129.500 72.609 126.500 L 73.271 123.500 70.048 126.500 L 66.825 129.500 61.566 137.500 L 56.307 145.500 53.700 152 L 51.092 158.500 49.352 164.286 L 47.612 170.072 46.064 169.774 L 44.515 169.476 43.911 166.488 L 43.306 163.500 41.436 167.500 L 39.566 171.500 39.533 178 L 39.500 184.500 40.848 197.963 L 42.195 211.425 41.504 218.798 L 40.813 226.170 42.895 225.056 L 44.976 223.942 45.641 221.221 L 46.305 218.500 51.729 205 L 57.152 191.500 62.477 180.500 L 67.801 169.500 72.802 162.500 L 77.804 155.500 83.388 149 L 88.972 142.500 88.986 140.857 L 89 139.214 87.584 138.671 L 86.168 138.127 84.966 132.334 L 83.763 126.541 84.266 120.271 L 84.770 114 84.135 114.036 L 83.500 114.072 80.799 116.286 M 221.500 173.145 L 210.500 176.032 206 176.998 L 201.500 177.964 192 180.483 L 182.500 183.002 178 186.136 L 173.500 189.270 175.250 187.306 L 177 185.343 177 184.671 L 177 184 172.750 184.009 L 168.500 184.017 158.500 189.078 L 148.500 194.139 145.803 196.706 L 143.107 199.272 142.803 201.855 L 142.500 204.439 134.724 207.360 L 126.947 210.280 127.374 210.707 L 127.801 211.134 138.150 208.110 L 148.500 205.085 152.500 204.458 L 156.500 203.830 164 202.363 L 171.500 200.896 180 198.867 L 188.500 196.838 194 194.841 L 199.500 192.843 206.876 188.367 L 214.252 183.890 224.289 176.945 L 234.326 170 233.413 170.129 L 232.500 170.257 221.500 173.145" stroke="none" fill="#f1c792" fill-rule="evenodd"/><path d="M 283 19.708 L 275.500 22.128 271.523 23.814 L 267.547 25.500 261.758 29.238 L 255.970 32.976 257.600 30.488 L 259.230 28 258.584 28 L 257.938 28 246.719 35.394 L 235.500 42.788 233.087 45.382 L 230.675 47.975 229.328 46.857 L 227.981 45.739 224.185 46.248 L 220.389 46.758 214.922 49.344 L 209.455 51.930 203.978 55.995 L 198.500 60.059 195.750 63.708 L 193 67.356 193 68.782 L 193 70.208 201 62.682 L 209 55.156 215.160 52.078 L 221.319 49 223.660 49 L 226 49 226 50.596 L 226 52.191 224.163 54.846 L 222.325 57.500 221.617 59.500 L 220.908 61.500 224.064 57.705 L 227.220 53.909 234.057 48.455 L 240.893 43 241.947 43 L 243 43 243 45 L 243 47 244.065 47 L 245.129 47 247.690 43.956 L 250.252 40.912 254.376 38.789 L 258.500 36.666 262.934 36.467 L 267.368 36.267 262.934 40.253 L 258.500 44.240 247.500 54.390 L 236.500 64.540 231 69.079 L 225.500 73.618 218 78.855 L 210.500 84.092 197.861 92.386 L 185.222 100.680 182.361 102.921 L 179.500 105.163 176 108.363 L 172.500 111.563 168.500 114.508 L 164.500 117.453 155.500 124.914 L 146.500 132.374 146 133.052 L 145.500 133.729 136 141.616 L 126.500 149.504 122 152.962 L 117.500 156.421 109.135 164.461 L 100.770 172.500 95.553 179.500 L 90.335 186.500 78.568 198.254 L 66.800 210.008 58.150 217.265 L 49.500 224.521 40.798 231.011 L 32.097 237.500 36.070 239.371 L 40.044 241.243 38.930 242.584 L 37.817 243.926 35.658 242.567 L 33.500 241.208 31 240.572 L 28.500 239.936 32.250 241.992 L 36 244.048 36 245.024 L 36 246 35.059 246 L 34.118 246 33.561 245.098 L 33.004 244.197 29.752 243.112 L 26.500 242.027 28.163 243.264 L 29.827 244.500 31.663 245.633 L 33.500 246.765 32.863 247.437 L 32.226 248.108 28.863 246.058 L 25.500 244.007 24.500 244.021 L 23.500 244.034 26.749 246.114 L 29.998 248.195 29.442 249.094 L 28.886 249.993 25.693 248.436 L 22.500 246.880 24.985 248.871 L 27.470 250.863 26.766 251.567 L 26.062 252.271 23.566 250.635 L 21.070 249 19.785 249.005 L 18.500 249.010 21.500 251.469 L 24.500 253.928 23.215 253.964 L 21.930 254 19.215 252.301 L 16.500 250.601 18.921 253.297 L 21.341 255.992 20.667 256.667 L 19.992 257.341 17.746 255.319 L 15.500 253.298 14 252.494 L 12.500 251.691 15.360 254.765 L 18.220 257.839 17.860 258.875 L 17.500 259.910 13.281 256.397 L 9.061 252.885 12.281 250.136 L 15.500 247.386 22 242.493 L 28.500 237.599 36.984 231.182 L 45.469 224.764 50.484 220.309 L 55.500 215.854 60.845 209.677 L 66.190 203.500 71.961 194.987 L 77.733 186.474 81.654 182.931 L 85.576 179.389 91.114 175.712 L 96.653 172.036 104.577 164.683 L 112.500 157.330 119.500 151.414 L 126.500 145.497 131.500 141.524 L 136.500 137.551 141.003 132.938 L 145.506 128.325 147.850 122.913 L 150.195 117.500 156.559 104 L 162.922 90.500 164.081 86.500 L 165.239 82.500 169.143 74.500 L 173.047 66.500 175.836 63.444 L 178.626 60.387 182.157 57.694 L 185.689 55 186.456 55 L 187.223 55 186.512 58.750 L 185.802 62.500 185.891 68.907 L 185.981 75.314 186.447 75.781 L 186.914 76.247 188.610 75.596 L 190.307 74.945 188.513 73.633 L 186.719 72.321 187.922 65.411 L 189.124 58.500 189.923 54.250 L 190.723 50 190.057 50 L 189.392 50 184.911 52.841 L 180.431 55.682 176.657 58.996 L 172.883 62.310 170.163 66.405 L 167.444 70.500 164.500 77 L 161.556 83.500 158.886 87.523 L 156.216 91.546 153.608 92.942 L 151 94.338 151 101.454 L 151 108.569 148.907 114.524 L 146.814 120.479 145.755 122.489 L 144.697 124.500 140.120 130.353 L 135.544 136.205 127.022 142.773 L 118.500 149.340 107.500 159.598 L 96.500 169.856 93.500 172.151 L 90.500 174.447 91.951 172.473 L 93.402 170.500 94.568 169.487 L 95.733 168.474 100.231 161.487 L 104.728 154.500 108.297 147.500 L 111.865 140.500 115.427 131.820 L 118.989 123.140 120.581 117.320 L 122.173 111.500 122.960 108.343 L 123.747 105.186 126.124 100.934 L 128.500 96.682 130.379 95.591 L 132.257 94.500 132.712 95.750 L 133.167 97 134.085 97 L 135.003 97 137.972 90.715 L 140.941 84.430 143.801 81.691 L 146.661 78.951 146.290 82.225 L 145.918 85.500 147.459 82.135 L 149 78.770 149 74.817 L 149 70.864 145.750 73.117 L 142.500 75.370 135 82.936 L 127.500 90.502 120.171 105.339 L 112.842 120.175 112.309 119.642 L 111.776 119.109 112.806 112.805 L 113.835 106.500 113.168 102.163 L 112.500 97.827 109.500 100.464 L 106.500 103.102 102.404 105.006 L 98.308 106.909 95.320 109.705 L 92.331 112.500 91.623 123 L 90.915 133.500 90.552 136 L 90.189 138.500 89.170 141 L 88.151 143.500 81.598 151.272 L 75.044 159.045 71.145 164.786 L 67.246 170.528 62.200 181.014 L 57.153 191.500 51.729 205 L 46.305 218.500 45.641 221.221 L 44.976 223.942 42.895 225.056 L 40.813 226.170 41.504 218.798 L 42.195 211.425 40.848 197.963 L 39.500 184.500 39.533 178 L 39.566 171.500 41.436 167.500 L 43.306 163.500 43.911 166.488 L 44.515 169.476 46.064 169.774 L 47.612 170.072 49.352 164.286 L 51.092 158.500 53.700 152 L 56.307 145.500 61.566 137.500 L 66.825 129.500 70.048 126.500 L 73.271 123.500 72.618 126.500 L 71.966 129.500 75.100 123.805 L 78.234 118.110 82.117 115.419 L 86 112.728 86 111.364 L 86 110 85.353 110 L 84.706 110 80.103 113.715 L 75.500 117.430 69.644 122.965 L 63.788 128.500 61.042 132.500 L 58.296 136.500 55.329 142 L 52.363 147.500 51.047 152 L 49.731 156.500 47.918 161.500 L 46.104 166.500 46.056 164 L 46.008 161.500 47.486 152.500 L 48.965 143.500 48.983 141.750 L 49 140 48.168 140 L 47.337 140 44.242 144.776 L 41.147 149.552 38.914 155.026 L 36.681 160.500 36.216 177 L 35.750 193.500 30.875 188.060 L 26 182.619 26 183.562 L 26 184.505 28.525 194.502 L 31.051 204.500 33.025 213.860 L 35 223.220 34.986 226.860 L 34.972 230.500 23.337 239 L 11.703 247.500 8.851 249.839 L 6 252.178 6 257.121 L 6 262.064 7.481 265.609 L 8.962 269.154 14.731 265.090 L 20.500 261.027 24 257.958 L 27.500 254.889 30.125 252.965 L 32.751 251.041 30.328 257.039 L 27.905 263.038 28.595 264.154 L 29.285 265.270 30.607 262.885 L 31.929 260.500 31.965 258.905 L 32 257.310 35.821 251.405 L 39.642 245.500 48.071 243.755 L 56.500 242.011 64.500 241.405 L 72.500 240.799 87.564 245.847 L 102.629 250.894 117.064 253.391 L 131.500 255.889 134.500 256.559 L 137.500 257.230 134.231 253.865 L 130.961 250.500 141.231 249.296 L 151.500 248.092 157.500 247.482 L 163.500 246.872 165.862 246.389 L 168.224 245.906 166.383 243.871 L 164.542 241.837 158.021 237.924 L 151.500 234.011 154.500 234.005 L 157.500 234 165.207 232.525 L 172.915 231.050 178.916 229.028 L 184.917 227.007 189.709 224.346 L 194.500 221.685 199.480 218.347 L 204.459 215.009 219.324 200.255 L 234.189 185.500 238.462 179.500 L 242.735 173.500 245.867 167.804 L 249 162.108 249 161.590 L 249 161.071 244.250 163.155 L 239.500 165.239 231 167.712 L 222.500 170.185 219 170.972 L 215.500 171.759 207.603 173.450 L 199.706 175.142 198.883 173.821 L 198.061 172.500 190.280 172.681 L 182.500 172.862 173.500 174.576 L 164.500 176.290 158.500 179.281 L 152.500 182.271 144.500 187.488 L 136.500 192.705 123.500 201.274 L 110.500 209.842 101.686 217.524 L 92.873 225.206 93.401 225.734 L 93.928 226.262 97.214 224.711 L 100.500 223.161 108.500 219.664 L 116.500 216.168 124.500 213.600 L 132.500 211.031 142.575 208.548 L 152.650 206.064 167.575 203.053 L 182.500 200.041 187.835 198.457 L 193.170 196.872 200.335 193.566 L 207.500 190.260 221.758 180.152 L 236.016 170.043 239.101 168.448 L 242.186 166.853 242.739 167.406 L 243.293 167.959 240.480 172.230 L 237.668 176.500 227.348 188.152 L 217.029 199.804 212.265 204.013 L 207.500 208.222 200 212.629 L 192.500 217.037 185 219.932 L 177.500 222.826 166.645 225.490 L 155.790 228.154 150.645 229.053 L 145.500 229.952 131.561 231.976 L 117.622 234 110.561 234.005 L 103.500 234.011 110.320 238.103 L 117.139 242.194 116.711 242.622 L 116.283 243.050 111.800 241.129 L 107.317 239.207 99.481 237.464 L 91.645 235.720 80.573 236.300 L 69.500 236.879 57.724 238.927 L 45.948 240.975 43.344 241.629 L 40.739 242.282 41.201 240.898 L 41.662 239.513 50.081 232.148 L 58.500 224.782 75.878 207.641 L 93.255 190.500 98.164 184.654 L 103.074 178.808 102.533 177.103 L 101.992 175.399 107.342 168.950 L 112.692 162.500 117.806 158.225 L 122.919 153.949 121.460 157.442 L 120 160.936 120 162.578 L 120 164.220 124.315 158.358 L 128.630 152.497 136.065 146.109 L 143.500 139.721 151.087 132.570 L 158.675 125.420 167.587 118.511 L 176.500 111.603 185 104.479 L 193.500 97.354 210 86.237 L 226.500 75.119 234.682 67.810 L 242.864 60.500 254.453 49.784 L 266.041 39.068 270.521 35.986 L 275 32.904 275 33.404 L 275 33.904 270.664 40.202 L 266.327 46.500 262.664 52.631 L 259 58.762 259 59.416 L 259 60.070 261 59 L 263 57.930 263 58.945 L 263 59.961 259.410 65.573 L 255.820 71.185 250.385 77.593 L 244.949 84 245.540 84 L 246.131 84 248.316 82.921 L 250.500 81.843 234.459 97.747 L 218.417 113.651 211.139 117.005 L 203.861 120.360 202.431 122.403 L 201 124.445 201 127.106 L 201 129.767 203.043 130.301 L 205.087 130.835 208.127 129.964 L 211.167 129.092 217.699 125.501 L 224.232 121.911 225.361 122.287 L 226.490 122.663 220.176 129.238 L 213.862 135.813 207.954 140.116 L 202.046 144.418 198.273 145.959 L 194.500 147.500 192.500 148.732 L 190.500 149.963 192 150.965 L 193.500 151.967 194.500 152.419 L 195.500 152.871 193.290 154.814 L 191.079 156.756 184.790 158.307 L 178.500 159.857 163.531 162.421 L 148.563 164.986 141.531 168.424 L 134.500 171.861 132 173.935 L 129.500 176.009 136.500 173.400 L 143.500 170.791 148 169.397 L 152.500 168.003 168 167.037 L 183.500 166.070 188.500 165.073 L 193.500 164.077 196.500 163.172 L 199.500 162.267 203.500 160.011 L 207.500 157.756 214.809 151.878 L 222.119 146 223.059 146 L 224 146 224 145.150 L 224 144.300 216.250 144.760 L 208.500 145.220 217.030 136.860 L 225.559 128.500 229.956 122.090 L 234.353 115.679 231.326 116.285 L 228.300 116.890 222.900 119.300 L 217.500 121.709 215.750 122.323 L 214 122.937 214 122.593 L 214 122.249 223.750 115.699 L 233.500 109.150 239 104.017 L 244.500 98.884 241.642 99.324 L 238.785 99.764 245.680 92.632 L 252.576 85.500 255.602 81.500 L 258.627 77.500 259.315 76.343 L 260.003 75.187 258.001 75.710 L 256 76.233 256 75.619 L 256 75.005 259.383 70.252 L 262.765 65.500 265.469 60.112 L 268.173 54.725 266.896 53.936 L 265.619 53.147 269.471 47.323 L 273.323 41.500 279.038 34 L 284.752 26.500 287.860 23 L 290.968 19.500 290.984 18.250 L 291 17 290.750 17.144 L 290.500 17.287 283 19.708 M 332.500 51.636 L 329.500 52.088 322.250 54.189 L 315 56.291 315 57.646 L 315 59 316.435 59 L 317.870 59 320.683 57.931 L 323.496 56.861 330.787 56.832 L 338.079 56.804 343.431 59.422 L 348.783 62.041 352.973 66.587 L 357.163 71.132 356.681 72.316 L 356.200 73.500 331.993 131.500 L 307.787 189.500 305.278 192.835 L 302.768 196.170 299.810 197.969 L 296.852 199.768 292.926 200.396 L 289 201.024 289 202.012 L 289 203 309.500 203 L 330 203 330 202.158 L 330 201.317 326.016 200.123 L 322.033 198.929 321.016 197.030 L 320 195.131 319.987 192.816 L 319.974 190.500 327.196 171.734 L 334.418 152.969 361.321 153.234 L 388.224 153.500 393.939 170 L 399.653 186.500 403.413 195 L 407.173 203.500 412.295 212 L 417.417 220.500 425.959 229.106 L 434.500 237.712 442.066 241.417 L 449.633 245.123 455.066 245.823 L 460.500 246.524 466.803 245.909 L 473.105 245.295 474.236 244.164 L 475.367 243.033 474.670 242.336 L 473.972 241.639 467.384 240.846 L 460.795 240.053 455.312 237.542 L 449.828 235.032 445.766 231.815 L 441.705 228.598 435.874 221.261 L 430.044 213.925 425.815 206.712 L 421.585 199.500 416.911 189 L 412.238 178.500 396.520 134 L 380.803 89.500 377.425 82.160 L 374.047 74.819 369.598 68.586 L 365.150 62.352 361.560 59.614 L 357.971 56.876 352.650 54.440 L 347.328 52.004 341.414 51.594 L 335.500 51.185 332.500 51.636 M 1170.500 60.726 L 1164.500 62.248 1129.692 62.703 L 1094.884 63.159 1095.205 64.830 L 1095.526 66.500 1099.814 67.074 L 1104.103 67.648 1106.801 70.347 L 1109.500 73.045 1109.500 132.273 L 1109.500 191.500 1108.186 193.804 L 1106.872 196.107 1103.686 198.050 L 1100.500 199.993 1097.750 199.996 L 1095 200 1095 201.500 L 1095 203 1136.883 203 L 1178.767 203 1179.277 201.250 L 1179.787 199.500 1183.444 189.500 L 1187.102 179.500 1188.540 175 L 1189.978 170.500 1189.989 170.250 L 1190 170 1188.250 170.042 L 1186.500 170.085 1183.500 176.200 L 1180.500 182.315 1175.984 186.984 L 1171.468 191.652 1166.484 193.491 L 1161.500 195.330 1142.750 195.759 L 1124 196.187 1124 167.094 L 1124 138 1141.889 138 L 1159.778 138 1162.129 139.903 L 1164.479 141.806 1165.537 146.153 L 1166.596 150.500 1167.548 150.500 L 1168.500 150.500 1168.775 134.250 L 1169.050 118 1167.613 118 L 1166.176 118 1165.501 121.996 L 1164.826 125.992 1162.278 127.996 L 1159.730 130 1141.865 130 L 1124 130 1124 100 L 1124 70 1144.032 70 L 1164.064 70 1167.328 71.364 L 1170.591 72.727 1172.169 75.135 L 1173.747 77.544 1174.470 81.823 L 1175.193 86.102 1176.347 85.719 L 1177.500 85.336 1177.779 72.168 L 1178.058 59 1177.279 59.102 L 1176.500 59.205 1170.500 60.726 M 467.609 63.750 L 467.041 67.500 465.591 79 L 464.141 90.500 462.606 104 L 461.071 117.500 459.011 135 L 456.951 152.500 455.518 164.500 L 454.085 176.500 453.480 183.088 L 452.876 189.675 450.947 192.847 L 449.018 196.018 445.759 198.005 L 442.500 199.993 438.750 199.996 L 435 200 435 201.500 L 435 203 455 203 L 475 203 475 201.500 L 475 200 472.582 200 L 470.164 200 468.545 199.379 L 466.926 198.758 465.607 196.129 L 464.288 193.500 466.104 174.500 L 467.920 155.500 469.436 139 L 470.953 122.500 471.573 112.402 L 472.194 102.304 472.938 101.101 L 473.681 99.898 476.506 106.199 L 479.331 112.500 483.036 120.500 L 486.740 128.500 495.987 148.500 L 505.234 168.500 509.418 177.500 L 513.601 186.500 518.032 196.250 L 522.462 206 524.124 206 L 525.786 206 526.393 204.418 L 527 202.836 527 201.229 L 527 199.622 533.916 183.561 L 540.832 167.500 544.535 159.500 L 548.238 151.500 554.043 138.500 L 559.848 125.500 566.357 111.058 L 572.866 96.616 573.388 99.058 L 573.910 101.500 574.966 114 L 576.021 126.500 577.550 144 L 579.079 161.500 580.658 177.853 L 582.237 194.206 580.269 196.853 L 578.301 199.500 574.651 199.810 L 571 200.121 571 201.560 L 571 203 614 203 L 657 203 657 201.500 L 657 200 654.455 200 L 651.909 200 649.455 197.545 L 647 195.091 647 193.058 L 647 191.026 653.925 173.263 L 660.850 155.500 687.175 155.247 L 713.500 154.995 720.368 173.506 L 727.235 192.018 725.980 195.047 L 724.726 198.076 722.929 199.038 L 721.131 200 719.066 200 L 717 200 717 201.500 L 717 203 740 203 L 763 203 763 201.500 L 763 200 760.316 200 L 757.631 200 753.323 197.914 L 749.014 195.828 747.008 193.011 L 745.002 190.194 738.956 175.847 L 732.910 161.500 729.532 153.500 L 726.154 145.500 720.520 132 L 714.886 118.500 710.483 108 L 706.081 97.500 698.952 80.500 L 691.823 63.500 691.295 61.750 L 690.767 60 689.008 60 L 687.250 60 686.682 62.839 L 686.114 65.679 677.967 85.089 L 669.820 104.500 656.010 137.500 L 642.200 170.500 639.062 178 L 635.925 185.500 634.318 188.500 L 632.712 191.500 630.606 193.847 L 628.500 196.195 624.790 198.097 L 621.080 200 614.990 200 L 608.901 200 606.039 198.520 L 603.177 197.040 601.174 194.495 L 599.172 191.949 598.149 185.225 L 597.125 178.500 595.025 160.500 L 592.926 142.500 591.430 130.500 L 589.934 118.500 589.515 114.500 L 589.095 110.500 587.592 98.500 L 586.089 86.500 584.402 73.250 L 582.715 60 581.378 60 L 580.041 60 577.974 64.051 L 575.907 68.103 569.544 82.301 L 563.182 96.500 558.009 108 L 552.836 119.500 549.794 126 L 546.753 132.500 542.808 141.500 L 538.864 150.500 536.276 156 L 533.689 161.500 529.895 170 L 526.100 178.500 521.023 167.500 L 515.946 156.500 514.508 153.500 L 513.070 150.500 498.535 119.193 L 484 87.886 484 87.557 L 484 87.228 477.500 73.614 L 471.001 60 469.588 60 L 468.176 60 467.609 63.750 M 782.432 63.490 L 783.087 66.980 783.083 129.941 L 783.078 192.902 781.871 194.834 L 780.664 196.767 777.928 198.384 L 775.191 200 771.596 200 L 768 200 768 201.500 L 768 203 789.583 203 L 811.167 203 810.752 201.750 L 810.337 200.500 806.419 199.945 L 802.500 199.390 800.250 198.160 L 798 196.930 796.491 194.626 L 794.981 192.322 795.241 142.561 L 795.500 92.799 807.899 106.150 L 820.298 119.500 828.430 128 L 836.563 136.500 864.945 166.865 L 893.327 197.231 897.317 201.615 L 901.308 206 903.263 206 L 905.219 206 904.503 202.250 L 903.787 198.500 903.336 137.595 L 902.886 76.689 904.078 73.811 L 905.271 70.932 907.770 68.966 L 910.270 67 913.053 67 L 915.836 67 917.418 66.393 L 919 65.786 919 64.393 L 919 63 898.059 63 L 877.118 63 876.431 64.112 L 875.744 65.224 877.122 66.096 L 878.500 66.969 882.327 66.985 L 886.154 67 889.077 69.923 L 892 72.846 891.980 123.173 L 891.960 173.500 886.730 167.990 L 881.500 162.479 867.951 147.990 L 854.402 133.500 838.500 116.500 L 822.598 99.500 816.963 93.500 L 811.327 87.500 803.859 79.500 L 796.390 71.500 791.050 65.750 L 785.710 60 783.744 60 L 781.777 60 782.432 63.490 M 1220.576 62.250 L 1221.385 64.500 1221.741 127.706 L 1222.097 190.913 1220.531 193.939 L 1218.966 196.966 1216.033 198.483 L 1213.099 200 1209.550 200 L 1206 200 1206 201.500 L 1206 203 1227.500 203 L 1249 203 1249 201.500 L 1249 200 1245.450 200 L 1241.901 200 1239.099 198.551 L 1236.297 197.102 1234.648 194.586 L 1233 192.070 1233.016 142.285 L 1233.032 92.500 1240.285 100 L 1247.538 107.500 1261.519 122.445 L 1275.500 137.389 1282.102 144.445 L 1288.705 151.500 1313.968 178.500 L 1339.231 205.500 1341.235 205.835 L 1343.239 206.170 1342.520 202.335 L 1341.801 198.500 1341.337 137.610 L 1340.874 76.720 1342.028 73.932 L 1343.183 71.145 1345.153 69.361 L 1347.124 67.578 1351.800 67.039 L 1356.477 66.500 1356.812 64.750 L 1357.147 63 1336 63 L 1314.853 63 1315.188 64.750 L 1315.523 66.500 1320.148 67.033 L 1324.773 67.567 1326.541 69.033 L 1328.310 70.500 1329.655 73.718 L 1331 76.936 1330.958 125.718 L 1330.917 174.500 1327.708 170.920 L 1324.500 167.340 1288.052 128.420 L 1251.605 89.500 1244.500 82 L 1237.396 74.500 1230.534 67.250 L 1223.672 60 1221.719 60 L 1219.767 60 1220.576 62.250 M 1403.500 61.338 L 1399.500 62.664 1396.448 64.255 L 1393.396 65.846 1389.269 70.324 L 1385.142 74.801 1382.842 79.151 L 1380.543 83.500 1380.521 94.536 L 1380.500 105.573 1384 111.385 L 1387.500 117.198 1391 120.248 L 1394.500 123.298 1406.994 134.899 L 1419.488 146.500 1425.384 152 L 1431.280 157.500 1433.630 162.500 L 1435.980 167.500 1435.980 173 L 1435.980 178.500 1433.633 183.541 L 1431.286 188.582 1428.023 191.327 L 1424.760 194.073 1422.130 195.402 L 1419.500 196.732 1414.168 197.985 L 1408.837 199.239 1402.864 197.971 L 1396.891 196.704 1393.012 193.894 L 1389.134 191.084 1386.583 186.732 L 1384.032 182.380 1382.837 174.690 L 1381.641 167 1380.846 167 L 1380.051 167 1378.607 169.794 L 1377.162 172.588 1376.458 179.731 L 1375.754 186.874 1376.448 191.504 L 1377.143 196.135 1381.611 198.969 L 1386.080 201.803 1394.243 204.005 L 1402.405 206.207 1412.952 205.785 L 1423.500 205.362 1429.201 202.587 L 1434.902 199.812 1439.522 194.873 L 1444.141 189.934 1446.070 185.575 L 1447.998 181.215 1448.833 175.114 L 1449.667 169.014 1448.925 163.547 L 1448.183 158.080 1445.731 152.723 L 1443.278 147.366 1423.389 128.966 L 1403.500 110.567 1399.283 106.300 L 1395.066 102.033 1393.412 96.345 L 1391.758 90.657 1392.974 85.227 L 1394.189 79.797 1397.769 75.834 L 1401.350 71.871 1404.073 70.462 L 1406.796 69.054 1411.276 68.050 L 1415.757 67.046 1421.501 68.542 L 1427.245 70.038 1429.991 71.993 L 1432.736 73.948 1434.572 76.724 L 1436.408 79.500 1436.954 83.487 L 1437.500 87.474 1439.250 87.810 L 1441 88.147 1441 75.166 L 1441 62.185 1435.250 61.624 L 1429.500 61.064 1418.500 60.538 L 1407.500 60.013 1403.500 61.338 M 1565.500 61.338 L 1561.500 62.664 1558.448 64.255 L 1555.396 65.846 1551.269 70.324 L 1547.142 74.801 1544.880 79.151 L 1542.619 83.500 1542.196 93.164 L 1541.774 102.827 1544.325 108.399 L 1546.876 113.972 1551.688 118.736 L 1556.500 123.500 1575.149 140.801 L 1593.797 158.101 1595.899 162.986 L 1598 167.871 1597.990 173.185 L 1597.980 178.500 1595.633 183.541 L 1593.286 188.582 1590.023 191.327 L 1586.760 194.073 1584.130 195.402 L 1581.500 196.732 1576.168 197.985 L 1570.837 199.239 1564.864 197.971 L 1558.891 196.704 1555.012 193.894 L 1551.134 191.084 1548.439 186.485 L 1545.743 181.886 1544.695 173.943 L 1543.646 166 1542.421 166 L 1541.196 166 1540.150 168.999 L 1539.104 171.999 1538.423 180.402 L 1537.741 188.805 1538.427 192.460 L 1539.112 196.115 1543.596 198.959 L 1548.080 201.803 1556.243 204.005 L 1564.405 206.207 1574.952 205.785 L 1585.500 205.362 1591.201 202.587 L 1596.902 199.812 1601.483 194.915 L 1606.063 190.018 1608.069 185.339 L 1610.074 180.661 1610.871 174.837 L 1611.667 169.014 1610.908 163.419 L 1610.149 157.824 1607.486 152.383 L 1604.824 146.941 1583.162 126.937 L 1561.500 106.934 1558.806 103.395 L 1556.111 99.856 1554.935 94.599 L 1553.758 89.343 1555.340 83.901 L 1556.922 78.459 1560.150 75.157 L 1563.378 71.856 1566.087 70.455 L 1568.796 69.054 1573.276 68.050 L 1577.757 67.046 1583.589 68.565 L 1589.422 70.085 1592.570 72.486 L 1595.719 74.887 1597.359 78.345 L 1599 81.802 1599 84.901 L 1599 88 1601 88 L 1603 88 1603 75.093 L 1603 62.185 1597.250 61.624 L 1591.500 61.064 1580.500 60.538 L 1569.500 60.013 1565.500 61.338 M 936 64.393 L 936 65.786 937.582 66.393 L 939.164 67 941.971 67 L 944.778 67 947.139 68.911 L 949.500 70.821 950.055 118.161 L 950.610 165.500 952.140 170.680 L 953.670 175.859 957.085 181.536 L 960.500 187.214 965.890 192.161 L 971.279 197.108 975.890 199.440 L 980.500 201.772 987.355 203.886 L 994.211 206 1005.554 206 L 1016.897 206 1024.777 203.511 L 1032.657 201.021 1038.648 197.149 L 1044.639 193.277 1048.130 188.888 L 1051.622 184.500 1053.313 181.782 L 1055.004 179.065 1057.252 173.782 L 1059.500 168.500 1060 120.329 L 1060.500 72.158 1062.876 69.631 L 1065.252 67.103 1069.367 66.801 L 1073.483 66.500 1073.815 64.750 L 1074.147 63 1055 63 L 1035.853 63 1036.185 64.750 L 1036.517 66.500 1040.730 66.806 L 1044.943 67.112 1046.972 69.691 L 1049 72.270 1049 117.530 L 1049 162.789 1047.024 169.187 L 1045.048 175.585 1041.926 180.299 L 1038.803 185.013 1034.652 188.594 L 1030.500 192.175 1026.950 194.005 L 1023.400 195.836 1015.511 197.466 L 1007.622 199.095 1000.561 198.003 L 993.500 196.910 988.454 194.604 L 983.409 192.298 979.773 189.105 L 976.137 185.913 972.718 180.706 L 969.300 175.500 967.435 170.500 L 965.570 165.500 965.230 118.623 L 964.890 71.746 967.071 69.424 L 969.252 67.103 973.367 66.801 L 977.483 66.500 977.815 64.750 L 978.147 63 957.073 63 L 936 63 936 64.393 M 1472 64.488 L 1472 65.976 1476.010 66.618 L 1480.020 67.259 1482.931 70.574 L 1485.842 73.890 1486.484 79.195 L 1487.126 84.500 1486.813 137.500 L 1486.500 190.500 1485.096 193.236 L 1483.692 195.972 1481.096 197.679 L 1478.500 199.387 1475.082 199.947 L 1471.664 200.507 1471.249 201.754 L 1470.833 203 1493.417 203 L 1516 203 1516 201.632 L 1516 200.263 1511.843 199.706 L 1507.687 199.148 1504.593 196.056 L 1501.500 192.963 1501.193 135.731 L 1500.887 78.500 1501.935 74.913 L 1502.983 71.326 1505.027 69.475 L 1507.072 67.625 1511.273 67.062 L 1515.474 66.500 1515.810 64.750 L 1516.147 63 1494.073 63 L 1472 63 1472 64.488 M 350.287 112.160 L 338.074 143.500 337.430 145.250 L 336.786 147 361.500 147 L 386.214 147 385.670 145.582 L 385.126 144.164 376.142 117.806 L 367.158 91.448 364.828 86.134 L 362.499 80.819 350.287 112.160 M 682.563 100.227 L 677.772 112.500 672.341 126.500 L 666.910 140.500 665.455 143.784 L 664 147.068 663.999 147.284 L 663.998 147.500 686.999 147.214 L 710 146.928 710 146.600 L 710 146.271 705.884 135.386 L 701.767 124.500 699.520 118.500 L 697.274 112.500 693.031 101 L 688.788 89.500 688.071 88.727 L 687.355 87.955 682.563 100.227 M 103.500 107.525 L 97.500 110.690 95.266 114.595 L 93.033 118.500 93.016 126.212 L 93 133.925 90.967 139.360 L 88.933 144.794 85.169 149.147 L 81.404 153.500 76.811 159.500 L 72.219 165.500 68.237 172.615 L 64.255 179.730 60.556 188.115 L 56.858 196.500 53.027 206 L 49.195 215.500 48.485 218 L 47.775 220.500 51.987 216.500 L 56.198 212.500 61.923 205.500 L 67.648 198.500 71.709 192.500 L 75.770 186.500 83.440 177 L 91.110 167.500 95.999 157.500 L 100.888 147.500 103.412 139.500 L 105.936 131.500 108.523 118.605 L 111.109 105.709 110.305 105.035 L 109.500 104.361 103.500 107.525 M 221.500 173.145 L 210.500 176.032 206 176.998 L 201.500 177.964 192 180.483 L 182.500 183.002 178 186.136 L 173.500 189.270 175.250 187.306 L 177 185.343 177 184.671 L 177 184 172.750 184.009 L 168.500 184.017 158.500 189.078 L 148.500 194.139 145.803 196.706 L 143.107 199.272 142.803 201.855 L 142.500 204.439 134.724 207.360 L 126.947 210.280 127.374 210.707 L 127.801 211.134 138.150 208.110 L 148.500 205.085 152.500 204.458 L 156.500 203.830 164 202.363 L 171.500 200.896 180 198.867 L 188.500 196.838 194 194.841 L 199.500 192.843 206.876 188.367 L 214.252 183.890 224.289 176.945 L 234.326 170 233.413 170.129 L 232.500 170.257 221.500 173.145" stroke="none" fill="#66371e" fill-rule="evenodd"/></svg>